/* XPM */
static char *_977_c6067c730a3b553249cfa9700989a9d5e0b0658d1d9b24095fca1deeb2c93878[] = {
/* columns rows colors chars-per-pixel */
"64 64 246 2 ",
"   c #0E050E",
".  c #0E090E",
"X  c #13060C",
"o  c #130A0D",
"O  c #190C0B",
"+  c #19130B",
"@  c #0E0710",
"#  c #0E0A12",
"$  c #0C0C1F",
"%  c #110611",
"&  c #150D14",
"*  c #190E15",
"=  c #160E19",
"-  c #190F19",
";  c #151115",
":  c #191116",
">  c #16111A",
",  c #1B131A",
"<  c #1E1918",
"1  c #2B140C",
"2  c #221414",
"3  c #261A15",
"4  c #22161A",
"5  c #241A1B",
"6  c #2A1C1B",
"7  c #301A15",
"8  c #1C2719",
"9  c #2A231C",
"0  c #302915",
"q  c #2B3517",
"w  c #363A1B",
"e  c #1B1723",
"r  c #241C23",
"t  c #271C24",
"y  c #331D22",
"u  c #2D2323",
"i  c #26242A",
"p  c #2D232B",
"a  c #332423",
"s  c #382927",
"d  c #33262B",
"f  c #342B2D",
"g  c #2C3726",
"h  c #393728",
"j  c #2C2832",
"k  c #342B34",
"l  c #362C36",
"z  c #3A3237",
"x  c #3B333C",
"c  c #441E23",
"v  c #462826",
"b  c #562B27",
"n  c #43332A",
"m  c #493230",
"M  c #493936",
"N  c #41363B",
"B  c #443A3C",
"V  c #593D36",
"C  c #37461D",
"Z  c #3C4526",
"A  c #374B2E",
"S  c #394736",
"D  c #41461F",
"F  c #444828",
"G  c #475329",
"H  c #484737",
"J  c #564C36",
"K  c #495636",
"L  c #555838",
"P  c #6E493D",
"I  c #566532",
"U  c #576536",
"Y  c #696729",
"T  c #61693B",
"R  c #72783E",
"E  c #3C3743",
"W  c #3E3A45",
"Q  c #443B43",
"!  c #463C46",
"~  c #384848",
"^  c #4A4347",
"/  c #594844",
"(  c #4B5742",
")  c #595848",
"_  c #524B53",
"`  c #575357",
"'  c #664A44",
"]  c #714A49",
"[  c #68554B",
"{  c #75584E",
"}  c #675755",
"|  c #765D55",
" . c #586349",
".. c #5B6952",
"X. c #6B764A",
"o. c #72704B",
"O. c #746154",
"+. c #7A6455",
"@. c #79665A",
"#. c #7C655C",
"$. c #6A7756",
"%. c #797857",
"&. c #585766",
"*. c #6C5E63",
"=. c #676365",
"-. c #7A6866",
";. c #676674",
":. c #7B7270",
">. c #88594E",
",. c #87614F",
"<. c #856659",
"1. c #836B5D",
"2. c #96695C",
"3. c #86765B",
"4. c #826C63",
"5. c #886C66",
"6. c #8D6D6D",
"7. c #857263",
"8. c #8A7465",
"9. c #867468",
"0. c #8B746C",
"q. c #8E7A6C",
"w. c #977769",
"e. c #927C6C",
"r. c #8B7775",
"t. c #937C73",
"y. c #947977",
"u. c #9C7D73",
"i. c #A57767",
"p. c #A27E73",
"a. c #7C864A",
"s. c #7B8856",
"d. c #7B8567",
"f. c #7B8576",
"g. c #928E53",
"h. c #A49653",
"j. c #A7A257",
"k. c #8A8967",
"l. c #95846B",
"z. c #9A836B",
"x. c #8F9667",
"c. c #8A8378",
"v. c #968173",
"b. c #9B8373",
"n. c #9D8A73",
"m. c #9A867B",
"M. c #9B867B",
"N. c #A48776",
"B. c #A38B7C",
"V. c #B18E7B",
"C. c #AB927D",
"Z. c #A9A872",
"A. c #7B7987",
"S. c #877E85",
"D. c #7F839A",
"F. c #898488",
"G. c #9A8985",
"H. c #93938F",
"J. c #8B8794",
"K. c #968E97",
"L. c #9A9398",
"P. c #A38D82",
"I. c #A78E88",
"U. c #B28F80",
"Y. c #A59185",
"T. c #AC9483",
"R. c #A5938A",
"E. c #AA958C",
"W. c #A99B8A",
"Q. c #B59484",
"!. c #B49A84",
"~. c #BA9B85",
"^. c #B49B8B",
"/. c #BC9C8A",
"(. c #A79795",
"). c #AD9A94",
"_. c #A59A9C",
"`. c #B39C94",
"'. c #B49D99",
"]. c #BFA186",
"[. c #BDA28C",
"{. c #BCA394",
"}. c #B1AC92",
"|. c #B4A29C",
" X c #B9A59C",
".X c #B8A898",
"XX c #9396A5",
"oX c #909EB9",
"OX c #A69BA7",
"+X c #B39FA2",
"@X c #9BA2A2",
"#X c #95A3BD",
"$X c #ACA5A8",
"%X c #B4A4A3",
"&X c #BAA6A4",
"*X c #BCAAA4",
"=X c #B5A7A8",
"-X c #B5AAAA",
";X c #BBACAB",
":X c #BCB3AB",
">X c #B1AEB0",
",X c #BDB3B3",
"<X c #C19E8A",
"1X c #C3A38D",
"2X c #C7A58C",
"3X c #C4A692",
"4X c #C6A997",
"5X c #CBAB94",
"6X c #CCB29A",
"7X c #D1B59D",
"8X c #C2ACA6",
"9X c #C7B6A7",
"0X c #CDBDAD",
"qX c #D1BDA5",
"wX c #D1BEAD",
"eX c #C2ADB1",
"rX c #C3B5B5",
"tX c #C5B8B5",
"yX c #CEBDB3",
"uX c #C5BBBB",
"iX c #CABDBB",
"pX c #D2BEB3",
"aX c #D1BDB9",
"sX c #CCC2AD",
"dX c #CFC8AD",
"fX c #D3C7A3",
"gX c #D2C1AE",
"hX c #CDC2B4",
"jX c #CDC3BB",
"kX c #CAC4BB",
"lX c #D2C1B3",
"zX c #D2C4BC",
"xX c #D3CAB8",
"cX c #D4D3BD",
"vX c #99A5C2",
"bX c #A9AFC5",
"nX c #BABAC9",
"mX c #C6BDC1",
"MX c #CABEC2",
"NX c #CDC3C2",
"BX c #C8C4C9",
"VX c #D3C8C4",
"CX c #D0D0D4",
"ZX c #E7E6DF",
"AX c #E5E9E5",
"SX c #EAF0E3",
/* pixels */
"% X X 2 M n y n 2 & : & & & : : : : : & : : = * & * = & : * ; = * & = : & & : & : , ; = = * & : & = & : * : & * % ; * : ; = & & ",
"% % X * f M 0 a 2 : & ; & : * & & : & = : & = , : ; & & & : : = : & : : : & & : * : * ; ; & , & : * ; = & = = ; = & = , = * : = ",
"% % X O 3 H h a 2 : O = = * ; < & = ; = : : : ; = : * ; : & : = & : = & & = : = & & = : * * & & : ; & * * ; = & & : * ; : = : & ",
"& % % % : B B 6 3 : : , = = % , : = * : = : * : * : & = & = & * : & : & : : * & : = : : = : = ; * : = * : : : & : & : : ; : * : ",
"& @ = % < u B 6 6 O & = & & : , , = : : : = * , & : : = & & : & : & & = : : & & = = & : = , ; : : ; : ; - : ; * = & & = * * : = ",
"= @ #   = 4 M 6 6 : ; , : : ; = ; % % ; = * ; ; ; : : = : : : = : : & * : = : : , : : & & = * * , - : : : - = * * * : ; = ; & & ",
"e @ @ % & * z ^ u < < , , , & ; , , = : = : , = * = = : : = : ; = : < = : = & : ; * * = : : * : = * , = = & = & ; * & = = ; : = ",
", X @   & X 2 (.(.M O : : : & > , * & : & & * - , : : & : : : : : & = : : : : : : & & = ; * = , * * * = : ; ; & ; % & & : = * : ",
"e % # % & % 2 ^ 0.(.| , 2 , , # r , % & & ; * * & & , , , * = = : = & * : = , - - * - * * ; * * - - - = = = - % , : i E - = : = ",
"t =   . X X 2 n -.r.P.E.' 4 & : , r , = = * * - - * * * < : ; ; : = = = ; , : = & * , - = = : = & = - - = - = = f ` K.*.- = = > ",
"t , @ % % & * M | y.0.G.'.E.} < , i * : = : , * - , & : , , : = : : : : : , : * * = = * ; * * * - * - - * 4 d } H.y.:.E > ; & ; ",
"t 4 % @ % o O 2 v 5.w.u.p.E.8XK./ i ; : : 4 < , : : * * , e > > : : ; : r , , - * * * ; & = - - - 4 , y N | G.I.y.-.=.e > . ; # ",
"d t = % X & X O M 4.p.p.p.p.I.eX;X$X=.r ^ B B Q z ! B B f < e , , f W x x _ N t = & , = & o * * * N -.I.E.I.y.6.9.-.x r : ; ; ; ",
"d t = @ % & o X t v 6.6.w.u.S.S.'.,X,XOXL.=X%X(.%X-X;X;X$X_._.F.H.>X,X,XuX=XOX=.k r k r 4 2 t | I.'.'.).y.6.r.y.:.=.f : O & : : ",
"d t - % @ % % X X v | y.u.i.p.U.I.|.tXtXuXuXuXuXMXNXNXMXuXiXuXiXuXNXmXuXNXMXNXMX-X_.L.G.S.r.E.8X&X'.P.0.6.r.S.6.:.x p , : o O & ",
"t x e - & % % % % t y <.6.i.p.U.Y..X*XtX:XtXiXiXaXVXNXMXNXNXNXNXjXmXuXNXmXMXMXMXuXiXiXeXeX8X&X`.M.r.y.y.r.r.6.-.-.p & & < ; : : ",
"d l e &   % . # % < y ' 6.p.p.P.^.4X*X:X:XrXrXkXiXiXiXuXMXMXVXiXNXMXMXMXmXmXuXrXrXrXaXaX8X'.P.u.q.t.t.y.P.S.6.<.d - ; # ; ; ; ; ",
"a B r , % % # % ; = z [ 5.w.u.U.`. X4X8X9X9XtXhXaXyXaXiXaXMXNXiXuXrXuXrXtX,XrX;XeX8X+X'.Q.i.y.5.5.y.y.y.y.y.S.` t - ; . ; ; < ; ",
"a ^ u , % % # # o ; t 9 m 6.u.T.^.{.{. X8X9X9XpXyXyXtXtXaXtXiXrXrXrXeX,X,X,XeX;X8X+XI.I.S.i.2.<.6.y.y.S.S.6.=.l - & o ; ; . ; ; ",
"d N z , & # # # & & 4 3 s 6.P.^.{.{.'.{.4X6X9XwXwXqXwXyX9XtX8X;X;X;XeX;X;X-X-X*X8X'.E.I.p.i.6.6.6.6.y.p.S.S.&.r - - % & . ; < ; ",
"s l Q r % % # # . & : 2 s 0.).{.`.{.{./.4X4X7XqXqX7XqX9X9X8X8X&X;X=X=X&X&X=X%X|. X'.`.U.B.B.6.y.6.y.r.r.6.:.Q 4 & # & & ; ; ; ; ",
"N ! ! e , % # # = % * 7 M m.`.{.^./.[.[.'.3X5X7X7X7X6X6X6X8X4X%X&X;XeX&X;X=X|.|.'.`.E.I.P.P.u.y.6.6.r.G.-.! x % ; . & ; < ; 8 ; ",
"z Q ! i > & #   # o * 7 [ C.`./.!.~.~.!.[.3X5X6X6X5X3X{.{.!.{. X&X+X&X&X&X&X&X'.`.^.Q.P.B.M.m.y.y.6.0.y.:.j e * & & o ; ; ; ; ; ",
"d l W j < # % % . o : s q.E.^.!.T.[.~./.!.[.5X5X6X2X3X1X~.T.!.`.).+X+X+X=X%X;X%X'.`.E.I.P.Y.P.t.y.y.y.G.} - - * = & ; ; . . ; ; ",
"l E ! E $ > #   # # 5 ! m.C.N.4.q.U./././.<X1X5X2X5X<X<X~.Q.!.`.`.I.(.+X&X&X-X;X&X X).).R.P.G.m.0.0.G.G.z = & * & % o & o . < ; ",
"k k W W e > #   . . < [ T.C.N.P 1 s ' N.<X<X1X5X2X<X2X2X~.V.B.u.6.y.G.I.).+X;X;X8X8X|.|._.'.|.).c.t.R.` < ; % o % & & . ; ; . ; ",
"k x W W e > # % o ; n 5.].1X2Xe.7 + 1 2./.<X2X2X3X3X2X<XN.{ V V @.1 n <.E. X9XrX8XeX;X;X;X-X-X-XOX).$X^ & & & * = & % & . ; < ; ",
"l E ! W i e & . o & V b.C.2X2X3Xz.J V z./.Q.<X<X<X3X<Xi.V 7 1 7 1 v t.'.4X6X:X&X;X&X-X-X;X:X;X,X,X-X>X` > & o * & & & & ; ; ; ; ",
"l x ! Q k & & # O 5 / n.!.].2X5X5X1X!.^.Q./.<X<X/./.U.i.<.' V V 5.!.{.3X.X4X*X&X=X|.%X=X-X;X:X-X>X>X$X:.4 o % & # & & . . ; ; . ",
"l N Q Q l : = & o 3 O.n.T.].].2X2X1X].V.U./.~.<XQ.Q.<X<XQ.Q./.<X3X4X3X{..X X|.|.'.'.'.+X=X-X-X$X-X$XOXS.k , & & o & & ; < ; ; < ",
"k Q Q N x e < % o 6 @.m.C.!.].1X].[.C.N.V.Q.V.~.~.Q.<X<X2X3X5X3X5X3X3X3X{.}.`.|.).).%X'.%X%X-X$X>XOXOXS.j , & & # & & & ; ; ; ; ",
"B ^ ! N z u - % O 6 @.v.v.B.W.C.].C.w.i.i.i.p.V.<X<X5X5X5X5X5X5X5X3X{.[.^.Y.Y.Y.(.E.E.E.(.E.+X+XOXOXOXJ.k = ; % & % O & ; ; ; < ",
"E ! ! Q x r = = * 5 -.v.t.e.N.C.V.V.2.i.i.2.,.2.N./.3X1X4X1X1X1X].^./.W.Y.Y.m.Y.E.Y.E.E.R.I.E._.(._.L.J.W e $ = & & = % ; & : : ",
"k E ! l l t = = o t -.y.5.4.0.n.V.V.2.>.>.P P 2.V.3X3X3X[.].[.!.!.^.B.C.v.b.m.m.P.E.Y.P.P.G.G.G.L.OXXXS.W e > = & # . . = : : : ",
"k l E E l r - - < u -.y.5.-.7.u.N.V.<X>.P 2.i.<X3X1X{.!.!.!.T.C.N.v.q.9.q.q.v.m.G.P.P.Y.P.P.G.R.K.K.XXS.l e = & # . # & = & ; = ",
"k ! W E E e p - r a *.r.4.1.4.q.u.V.i.i.>.2.p.U././.!.!.C.T.C.B.b.v.l.9.0.q.m.M.m.P.P.Y.Y.R.E.(.K.K.K.A.E e % = & # & & & * & & ",
"E Q Q Q E p p t p k } 4.#.#.#.1.8.0.w.2.>.2.2.w.b.B.B.B.B.B.N.B.e.9.0.q.v.m.M.P.m.Y.Y.Y.R.E.W._.'.OXXXS.! e = o % . o & : : : = ",
"Q ! Q l l j l r r n / 4.-.#.+.#.+.1.] ] P >.>.0.w.u.v.b.v.u.v.v.8.9.l.v.v.v.b.B.B.Y.Y.Y.Y.E.(.|.OXOXXXK.&.r = % % o % = ; : = & ",
"z ! Q x x k d u k a / 0.1.3.@.{ ' ' c c c c v ' | 1.5.8.8.8.5.7.1.4.3.0.e.z.m.B.Y.B.Y.R.E.W.W._.(.OXXXS.&.t , & & . % ; : * : & ",
"l ! ! x j d k d f a } 9.q.l.8.-.[ M m c c v c v b V ' +.#.@.O.| { [ +.1.7.e.v.n.m.n.m.Y.E.^.W.|.OX_.K.K.=.e % # # & & = ; : : & ",
"B B E x k l k f 2 9 O.c.e.u.e.0.| [ m V ] { ] P V c b J ' [ / P { { +.3.3.3.8.z.n.n.P.Y.G.W.W.L.L.K.XXA.&.i & & ; & o & : = ; : ",
"N Q E E k p N d < f -.l.l.t.q.q.4.[ { { ,.| >.>.] ' ] ' ' [ [ { O.1.3.e.z.n.N.N.u.B.P.P.Y.W.G.L.H.K.J.A.` e & & # . # & > ; = : ",
"N Q z x l l x y < u [ q.t.t.q.v.4.O.+.1.2.<.2.5.2.4.<.5.4.| @.+.<.8.e.N.n.N.N.N.N.n.N.P.m.G.G.H.J.J.J.A._ : & # & & ; & ; = : : ",
"N N E x k l l p 6 t / -.q.e.u.q.-.+.O.1.3.<.<.>.<.<.5.1.4.-.| @.<.3.e.l.n.z.N.V.N.N.n.v.m.c.G.J.J.J.J.;.E # & & # % & # = & : = ",
"l Q E l x l k t t t m -.0.7.8.e.3.@.O.#.<.+.<.+.| | <.+.| } | { +.3.l.w.z.z.N.z.z.e.e.e.q.c.c.F.F.A.;.&.j $ # & & & & & = & & & ",
"z E E E j l k j y 4 d [ 4.9.9.8.+.@.+.{ | { { O.+.{ [ [ / / / O.w.z.n.N.z.z.w.l.v.b.e.t.c.m.F.F.D.:.A.;._ e > # . # # & & * * * ",
"z N E E l p l p y - 6 M -.-.4.-.#.-.@.} [ ' J ' P / H M M H ) | 8.+.3.8.3.l.3.7.9.0.9.5.6.r.r.:.A.A.A.A.:._ d : # % # = : % : * ",
"t t r 4 - - - - t - d v d h 0 3 9 9 + 6 9 u 6 u a a y 5 9 < 4 2 6 6 9 s s 0 h h z n n N ! B ^ ^ W ^ E j < > ; = > ; ; > & & ; ; ",
"- = = @ = & - = , y Q y y a y 3 9 6 5 u a a a 6 7 7 2 2 2 2 2 6 a 6 9 a h s s n z H M B B ^ B H ^ B x j > ; < < > > : & ; ; : & ",
"- = > . = % @ @ ! F.nXnXiXuXiXjXxXjXjXVXVXzXjXiXzXVXMXaXpXtXaX9X9X:X9X*X*X.X|.).).).R.G.F.c.r.:.` _ ( z < < ; . & ; ; ; ; * , - ",
": & = & = z XXnXCXBXCXMXNXNXjXNXNXjXjXjXuXMXaXyXaXpXpXaXpXwXpXpX0XsXlXlXlXlXpXwXlXlXlXzXlXhXxXVXVXkXNXVXVXNXkX:X$X_._.F.9.` B k ",
"= : % E #XmXnXBXCXmXmXMXBXBXNXNXNXjXyXNXiXaXjXyXaXpXaXaXpXyXwX0XpX0XlXgXpXwXpXqX0XgXgX0XpXyXyX0X0X0X0XyXtXyXyXhXhXhXhXzXzXVXVXVX",
"e # A.nXBXnXnXBXOXCXCXVXNXNXBXVXBXxXkXjXkXjXkXkXaXpXyXaXpXpXwXwXwXgXgXgXwXwXwXwXpXqXqXqX0XwX0X0XsX0X9XgX0XlX0X0XwXwXgXdXhXdXcXkX",
"e XXnXbXnXbXnX$ @ e ;.L.:.` _ $XVXNXkXkXjXzXhXxXjXzXpXiXzXpXzXpXpXpXwXwXwX0XwX0XwX0XqXwX0XsX0X0X9X0X0XsX0X0X0X0XwXwXgXfXsXW.%.d.",
"oXvXvXvXbXbX&., > % & o o 2 5 & o :XBXkXxXNXkXkXjXxXkXjXjXjXlXpXlXlXpXwXlXgXgXlXpXsXqXgXsX0XsXdXsXwX0XsXhXdXsXsXdXdXdX:XK I K $.",
"#XoXvXvXbXbXe e < ; o 4 O X * * < . =.VXVXNXkXkXkXkXxXkXjXhXlXlXpXlXlXlXlXlXsXlXpXlXgX0XyX0X0XdXdXpX9XsXsX:Xk.s. .W.9.U D D  .f.",
"vXvXvXoXvXvX$ > : ; . : & * X * - * : s I.G.W.W.R.}.W.W.}.:XxXxXzXlXhXhXlXgXyXyXwXzXwX0XpX0XhXxXsXdX9Xs.I C C C G G I T X.I C Z ",
"oX#XvX#X#XvX&.; < : : O 5 2 X * * 2 * 2 ! c.l.z.n.x.l.n.n.W.c.H c.jXjXkXhXhXhXlXlXaXsXlXjXhXkXdXZ.T C G C C A C U I I I I T X.G ",
"oXvX#XvXvXvXD.$ : : : : * X X O O : O : 1 7.w.3.g.w.3.3.k.k.m.) SXAXAXAXZXAXCXcXfXqXfXfXNXxX}.k.T X.a.s.x.G I a.X.X.X.%.%.%.s.d.",
"D.oXoXoX#XvXD.# O : ; + * O X O 3 + < a 9 F %.3.3.3.q.%.3.%.o.F  .@XAXAXCXkXcX5Xg.h.h.Z.SXCX}.$.a.s.a.g.x.U q T k.Z.}..X}.f.$. .",
"S ~ oXoXoX#X&.$ O ; # o O & O 3 n H K K Z H F Z F F n F D w D F ..=...f.f.H.s.g.g.h.g.g.A A ..a.a.s.x.Z.Y g.x.k.%.g.3.o.L F H ( ",
"A A A S ;.XX_ 8 & ; + + X o + + s q q q q q w g q Z w w w Z F H L ^ (  ...(  .X.R a.g.R q g A s.s.d.a.a.h.a.Y R I X.%.[ G H K ..",
"K S A 8 i i i u < < 9 H h . . q Z Z w q w w A q q q q F G ) ..n g H / ( ( ( A ( K  .I I A C C I K s.g.Y Y Y Y Y Y x.w D F C C A ",
"A ~ g g i 8 u 3 p d ( ) ) ) i g Z h C Z Z q q g w 8 0 q G h c.) / O.S S  .( A A ( K A G A q C g d.a.g.j.j.j.j.Z.g.g.w 0 w G A d."
};
