/* XPM */
static char *_992_5d44f0b796a9f910031a18bfec013915dcbb5babe857f8129fbc060e03703e07[] = {
/* columns rows colors chars-per-pixel */
"64 64 242 2 ",
"   c #170C0C",
".  c #1C0D0C",
"X  c #1B110D",
"o  c #1B0E11",
"O  c #161212",
"+  c #1D1212",
"@  c #291607",
"#  c #23140D",
"$  c #210F12",
"%  c #241514",
"&  c #291713",
"*  c #251A14",
"=  c #2C1A13",
"-  c #251519",
";  c #281719",
":  c #241C1A",
">  c #2B1B1B",
",  c #301D1D",
"<  c #2A211C",
"1  c #352315",
"2  c #3A2615",
"3  c #39271B",
"4  c #261D22",
"5  c #301F20",
"6  c #2C2222",
"7  c #2C2428",
"8  c #352726",
"9  c #392F2C",
"0  c #69300E",
"q  c #763616",
"w  c #463629",
"e  c #543F28",
"r  c #473C34",
"t  c #7C3D22",
"y  c #59473C",
"u  c #6D492C",
"i  c #5B4C44",
"p  c #5B5046",
"a  c #6D5644",
"s  c #6A5649",
"d  c #76624E",
"f  c #6F6057",
"g  c #786659",
"h  c #7E6F63",
"j  c #863E1B",
"k  c #873D23",
"l  c #89451A",
"z  c #974B16",
"x  c #924C1E",
"c  c #98531E",
"v  c #8A4825",
"b  c #8C4E2F",
"n  c #914D23",
"m  c #934A25",
"M  c #975527",
"N  c #9B562A",
"B  c #9D5C2C",
"V  c #8D5434",
"C  c #975834",
"Z  c #A35A27",
"A  c #A25B2D",
"S  c #A05D34",
"D  c #9D6439",
"F  c #A8632C",
"G  c #A46433",
"H  c #AA6534",
"J  c #AB6838",
"K  c #B26A38",
"L  c #B8753C",
"P  c #9A6A4A",
"I  c #876C5A",
"U  c #9C6851",
"Y  c #A46B42",
"T  c #A26A48",
"R  c #AC6F4E",
"E  c #A7724A",
"W  c #B37443",
"Q  c #B77A47",
"!  c #AD7C56",
"~  c #A67759",
"^  c #88756A",
"/  c #987B67",
"(  c #AF7B63",
")  c #B98048",
"_  c #A9845A",
"`  c #B68559",
"'  c #B7915F",
"]  c #9D846C",
"[  c #998576",
"{  c #A78567",
"}  c #AA8B65",
"|  c #AC8A6C",
" . c #B68865",
".. c #B38D6B",
"X. c #BA8D6D",
"o. c #AD926E",
"O. c #BD9363",
"+. c #B3926E",
"@. c #B8966B",
"#. c #BB926C",
"$. c #A78A76",
"%. c #B48E74",
"&. c #B88976",
"*. c #AB937A",
"=. c #B49473",
"-. c #BB9573",
";. c #B69877",
":. c #BB9A75",
">. c #B5947B",
",. c #BB967B",
"<. c #B59B7C",
"1. c #BC9B7B",
"2. c #BDA37E",
"3. c #C78C54",
"4. c #D2955D",
"5. c #C39669",
"6. c #CE966F",
"7. c #D49D6B",
"8. c #C59876",
"9. c #C19D7B",
"0. c #D9A56A",
"q. c #C3A27D",
"w. c #C8A37D",
"e. c #D9A976",
"r. c #999287",
"t. c #AA9A88",
"y. c #AD988E",
"u. c #B69783",
"i. c #BC9C82",
"p. c #BBA286",
"a. c #BBAA9A",
"s. c #BFB19D",
"d. c #B8ACA2",
"f. c #C29D83",
"g. c #C69E86",
"h. c #D09D81",
"j. c #C4A384",
"k. c #CAA483",
"l. c #C5AA85",
"z. c #CAAA85",
"x. c #C4A38A",
"c. c #C9A589",
"v. c #C5AA8B",
"b. c #CBAC8B",
"n. c #D4A887",
"m. c #D2AE8C",
"M. c #C6B18C",
"N. c #CDB28E",
"B. c #DBB386",
"V. c #D2B38E",
"C. c #C6AC92",
"Z. c #CCAD92",
"A. c #C7AB98",
"S. c #D2A596",
"D. c #D2AE93",
"F. c #CDB394",
"G. c #C8B597",
"H. c #CDB29A",
"J. c #D2B494",
"K. c #D4BA95",
"L. c #D9B896",
"P. c #D3B69A",
"I. c #D5BA9B",
"U. c #D9BD9D",
"Y. c #E0AC84",
"T. c #E2B889",
"R. c #E2B996",
"E. c #CAB7A6",
"W. c #D5BCA2",
"Q. c #D4BBA7",
"!. c #DABEA2",
"~. c #DABDA9",
"^. c #C9BCB4",
"/. c #D1BBB4",
"(. c #E2BCA6",
"). c #E1BEB1",
"_. c #D7C09F",
"`. c #DCC29D",
"'. c #E5C291",
"]. c #D6C2A3",
"[. c #DCC3A4",
"{. c #D5C2AB",
"}. c #DCC4AB",
"|. c #DECAAB",
" X c #DCC4B3",
".X c #DAC9B4",
"XX c #DDD2BA",
"oX c #E2C4A5",
"OX c #E4CBA6",
"+X c #E2C3AA",
"@X c #E2CAAC",
"#X c #E3D2AF",
"$X c #E2C4B3",
"%X c #E3CDB4",
"&X c #E8C8B4",
"*X c #E4CCB9",
"=X c #EBCCBD",
"-X c #E5D2B5",
";X c #E7D4B7",
":X c #E4D3BB",
">X c #E9D3BD",
",X c #EAD9BE",
"<X c #F4D7BC",
"1X c #DAD0C4",
"2X c #E4CEC3",
"3X c #E6D4C3",
"4X c #EBD4C5",
"5X c #EBDBC4",
"6X c #E4D7CC",
"7X c #ECDDCB",
"8X c #F3D7C4",
"9X c #E3DCD7",
"0X c #EDDED3",
"qX c #F3DED0",
"wX c #EDE2CD",
"eX c #F3E1CC",
"rX c #FCE4CE",
"tX c #F5E8CD",
"yX c #EDE4D3",
"uX c #EEE7DC",
"iX c #F3E4D4",
"pX c #F6E7D7",
"aX c #F2E6DB",
"sX c #F4EBDB",
"dX c #FBEBDC",
"fX c #FBF2DE",
"gX c #EAE7E4",
"hX c #EDEAE5",
"jX c #EEECEE",
"kX c #F4EBE3",
"lX c #FAEDE3",
"zX c #F2EAE8",
"xX c #F5F1E2",
"cX c #FBF3E3",
"vX c #F6F4E9",
"bX c #FBF5EB",
"nX c #F7FAED",
"mX c #FAF9EC",
"MX c #EEECF0",
"NX c #F8F6F2",
"BX c #FCF9F3",
"VX c #FFFDFF",
/* pixels */
"VXVXVXVXjXjXjXjXVXVXVXVXjXjXjXjXVXVXVXVXjXjXjXjXVXVXVXVXjXjXjXjXVXVXVXVXjXjXjXjXVXVXVXVXjXjXjXjXVXVXVXVXjXjXjXjXVXVXVXVXjXjXjXjX",
"VXVXVXVXjXjXjXjXVXVXVXVXjXjXjXjXVXVXVXVXjXjXjXjXVXVXVXVXjXjXjXjXVXVXVXVXjXjXjXjXVXVXVXVXjXjXjXjXVXVXVXVXjXjXjXjXVXVXVXVXjXjXjXjX",
"VXVXVXVXjXjXjXjXVXVXVXVXjXjXjXjXVXVXVXVXjXjXjXjXVXVXVXVXjXjXjXjXVXVXVXVXjXjXjXjXVXVXVXVXjXjXjXjXVXVXVXVXjXjXjXjXVXVXVXVXjXjXjXjX",
"VXVXVXVXjXjXjXjXVXVXVXVXjXjXjXjXVXVXVXVXjXjXjXjXVXVXVXVXjXjXjXjXVXVXVXVXjXjXjXjXVXVXVXVXjXjXjXjXVXVXVXVXjXjXjXjXVXVXVXVXjXjXjXjX",
"jXjXjXjXVXVXVXVXjXjXjXjXVXVXVXVXjXjXjXMXVXVXVXVXjXjXjXjXVXVXVXVXjXjXjXjXVXVXVXVXjXjXjXjXVXVXVXVXjXjXjXjXVXVXVXVXjXjXjXjXVXVXVXVX",
"jXjXjXjXVXVXVXVXjXjXjXjXVXVXVXVXjXhXhXMXVXVXVXVXjXjXjXjXVXVXVXVXjXjXjXjXVXVXVXVXjXjXjXjXVXVXVXVXjXjXjXjXVXVXVXVXjXjXjXjXVXVXVXVX",
"jXjXjXjXVXVXVXVXjXjXjXjXVXVXVXVXR.[.l.@XVXVXVXVXjXjXjXjXVXVXVXVXjXjXjXjXVXVXVXVXjXjXjXjXVXVXVXVXjXjXjXjXVXVXVXVXjXjXjXjXVXVXVXVX",
"jXjXjXjXVXVXVXVXjXjXjXjXVXVXVXVX;XsXyX[.F.6XVXVXjXjXjXjXVXVXVXVXjXjXjXjXVXVXVXVXjXjXjXjXVXVXVXVXjXjXjXjXVXVXVXVXjXjXjXjXVXVXVXVX",
"VXVXVXVXjXjXjXjXVXVXVXVXjXjXjXjXK.eXsXsX7X(.XXjXVXVXVXVXjXjXjXjXVXVXVXVXjXjXjXjXVXVXVXVXjXjXjXjXVXVXVXVXjXjXjXjXVXVXVXVXjXjXjXjX",
"VXVXVXVXjXjXjXjXVXVXVXVXjXjXjXgXb.,XsXsXpX+XB.I.VXVXVXVXjXjXjXjXVXVXVXVXjXjXjXjXVXVXVXVXjXjXjXjXVXVXVXVXjXjXjXjXVXVXVXVXjXjXjXjX",
"VXVXVXVXjXjXjXjXVXVXVXVXjXjXjXgXw.`.eXlXlXiX(.k.8.BXVXVXjXjXjXjXVXVXVXVXjXjXjXjXVXVXVXVXjXjXjXjXVXVXVXVXjXjXjXjXVXVXVXVXjXjXjXjX",
"VXVXVXVXjXjXjXjXVXVXVXVXjXjXjX9X:.w.-XiXsXlXpX<XJ.B.zXVXjXjXjXjXVXVXVXVXjXjXjXjXVXVXVXVXjXjXjXjXVXVXVXVXjXjXjXjXVXVXVXVXjXjXjXjX",
"jXjXjXjXVXVXVXVXjXjXjXjXVXVXVXhX@.5.N.4XqXaXrX(.` W L 0.aXVXVXVXjXjXjXjXVXVXVXVXjXjXjXjXVXVXVXVXjXjXjXjXfX<XVXVXjXjXjXjXVXVXVXVX",
"jXjXjXjXVXVXVXVXjXjXjXjXVXVXVXVXO.3.:.Z.&X4XL.! M n L L A 3.Q.VXjXMXjXjXVXVXVXVXjXjXjXjXVXVXVXVXjXjXjXhX8X8XBXVXjXjXjXjXVXVXVXVX",
"jXjXjXjXVXVXVXVXjXjXjXjXVXVXVXVX5.' O.8.S.S. .b x N N B A J G G J <XlXjXVXVXVXVXjXMXMXzXrXrXrXrX5.! q.&X4X;XNXVXjXjXjXjXVXVXVXVX",
"jXjXjXjXVXVXVXVXjXjXjXjXVXVXVXVXL.' O.#.8.S.( v m M M n x n G N G m K Z ..%.>.>.! G G D Y ` V D ( 8.(.8X=X*XVXVXjXjXjXjXVXVXVXVX",
"VXVXVXVXjXjXjXjXVXVXVXVXjXjXjXjXkXO.O. .X.1.h.b m K F x x n B J G A B A H K H H W G M b D R R 8.j.+X8X=X$X=XjXjXVXVXVXVXjXjXjXjX",
"VXVXVXVXjXjXjXjXVXVXVXVXjXjXjXjXVX8.5.! P ~ ` V l F H l l x W W b D l L F F Z K J B v l b b 8.g.}.=X).).).}.jXjXVXVXVXVXjXjXjXjX",
"VXVXVXVXjXjXjXjXVXVXVXVXjXjXjXjXVXG.9...E P S n z Z G l A H N T T G Y Q ) F B K N l t t q t 8.(.-X*X$X). X!.jXjXVXVXVXVXjXjXjXjX",
"VXVXVXVXjXjXjXjXVXVXVXVXjXjXjXjXVX5.9.w.' ` G x l n l N H m t T b.~ T Q Q B x K c m k b q U D.&X=X=X2X*X<X[.jXjXVXVXVXVXjXjXjXjX",
"jXjXjXjXVXVXVXVXjXjXjXjXVXVXVXVXzX#.-.#.' Q J x m j 0 C C l q ~ ~.u.T D Q J x B Z m B q b Y.(.$X$X=X&X~.&X*XVXVXjXjXjXjXVXVXVXVX",
"jXjXjXjXVXVXVXVXjXjXjXjXVXVXVXVXqXO...@.' ! Y n v 0 0 N P v ~ %.*XD.U ! K x A K Z Z l N  .R.(.(.W.(.=X=X8XlXVXVXjXjXjXjXVXVXVXVX",
"jXjXjXjXVXVXVXVXjXjXjXjXVXVXVXVX:.-.+.#.O.` Y C v l 0 U X.] [.H.$X}.~  .C l L L Z Z z F 4.0.B.L.(.(.(.=X<XVXVXVXjXjXjXjXVXVXVXVX",
"jXjXjXjXVXVXVXVXjXjXjXjXVXVXVXVX-.:.;.+. ._ E J P V U x.H.=X3X|.%X}.h. .n M L K Z L K L 7.7.9.n.&.n.8XqXrXVXVXVXjXjXjXjXVXVXVXVX",
"VXVXVXVXjXjXjXjXVXVXVXVXjXjXjXjX%.1.,.=.+._ ! E ~ / =.-X5X7X6X3X&XP.&. .C 5.Q Q L ) 3.4.0.e.e.v.c.&XeXlXdXjXjXjXVXVXVXVXjXjXjXjX",
"VXVXVXVXjXjXjXjXVXVXVXVXjXjXjXgX%.-.,.1. ._  .8.,.i.I.;X6X7X6X5X*Xb. .5.! 5.3.3.3.4.4.0.e.e.V.|.=XeXsXfXfXjXjXjXVXVXVXVXjXjXjXjX",
"VXVXVXVXjXjXjXjXVXVXVXVXhXhX$.] | >.i.,.( ~ g.i.A.W.`.,X7X4X3X7X*Xc.~ 8.O.5.7.3.7.4.0.e.'.'.#X<X5XqXsXfXdXhXjXjXVXVXVXVXjXjXjXjX",
"VXVXVXVXjXjXjXjXVXVXVXd.w @ @ I { %.i.>.| | x.x.C.].[.-X>XXX5XwX5X!.j.n.+.e.n.6.0.0.0.0.e.'.OX<X0XaXsXcXdXXXjXjXVXVXVXVXjXjXjXjX",
"jXjXjXjXVXVXVXVXjXjXu w < X 1 g / $.u.*.&.>.x.x.A.oX[.@X|.*X,X7XqX*XP.~.D.n.6.Y.e.e.e.0.e.'.;X5XiXaXyXbXdXH.VXVXjXjXjXjXVXVXVXVX",
"jXjXjXjXVXVXVXVXjXjXu 3 < < * * r I [ $.$.u.x.x.D.(.[.OXoX%X:X:X4X3X}.).+Xn.7.e.e.B.T.B.B.T.;X7XaXpXXXbXnXfX6XVXjXjXjXjXVXVXVXVX",
"jXjXjXjXVXVXVXVXjXjXe 3 1 2 1 = - & & r h / y.u.C.Q.!.[.I.@X%X-X2X3X)..X~.F.1.:.G.|.{.].!.@X*X0XuXwXr.vXmXNXfX-XjXjXjXjXVXVXVXVX",
"jXjXjXjXVXVXVXVXjXjXy 3 2 2 1 = ; & & % % w ^ ^ u.i.C.C.v.I.H.E./.E.a.y.r.I y y s f ^ [ t.a.E.^.^.d.r.nXmXBXnXbX%XjXjXjXVXVXVXVX",
"VXVXVXVXjXjXjXjXVXVXs.1 2 2 1 = = & % % % + % < i ^ [ [ [ [ h y 8 - - % : > > 6 7 7 8 < 9 9 r /.0XaXkXbXmXmXBXmXyXcXVXVXjXjXjXjX",
"VXVXVXVXjXjXjXjXVXVXBX@ 3 2 1 = = # # % + % + X + * < < > & + % - - % - ; > , 8 5 8 9 9 8 r d.3X9X0XaXlXxXnXmXmXdX@XVXVXjXjXjXjX",
"VXVXVXVXjXjXjXjXVXVXVXu 2 2 1 = & @ # % + # O O + O O O + + - + + + $ $ $ % - ; - , & & & g A.].~.*X0XiXcXbXBXBXbX].VXVXjXjXjXjX",
"VXVXVXVXjXjXjXjXVXVXVX} 2 1 2 = & # # . X X + + + 6 r 9 + 7 : % $ $ . . . $ $ - ; % & # % f p.a.A.~.*X3XiXsXnXNXvX5XVXVXMXjXjXjX",
"jXjXjXjXVXVXVXVXjXjXjXo.P @ 1 = & # . . . X O O 6 g / d 4 6 * % - - % + $ % % ; ; & % + < g $.;.i.P.C.{.5XsXnXmXnXxX|.hXVXVXVXVX",
"jXjXjXjXVXVXVXVXjXjXjXs._ d 1 * = # . .   o O + a >.i.t.s 4 % + 4 ; > > & & ; ; ; ; % & # 3 ] | f.x.v.I.*XiXbXnXnXnXtX}.VXVXVXVX",
"jXjXjXjXVXVXVXVXjXjXMXp._ } / 3 # @ .     . o y t.i.C.C.p.y * : > > > > 5 , , > = - > < * = ] <.f.&.j.z.].5XaXlXmXmXfX}.VXVXVXVX",
"jXjXjXjXVXVXVXVXjXjXjXa._ ' =.$.a 3 X X + % y / &.g.A.P.E.[ r * : : 4 4 5 > > > > < * X i t.{ 1.i.| =.:.J.}.6XaXmXmXnXwXVXVXVXVX",
"VXVXVXVXjXjXjXjXVXVXVX.X .+.-.-.;.u.] ^ I [ ,.{ ( g.S.S.H.A.t.p 9 7 > - + : 4 7 * 3 f p.p.u.=.=.1.=.} :.b.H.-XyXbXbXmXcX{.hXMXjX",
"VXVXVXVXjXjXjXjXVXVXVX| #.:.1.1.,.;.<.i.2.l.g.,.~ ( &.u.f./.{.E.r.f y r y 9 y g *.s.s.p.v.v.;.o.>.j.@.:.k.m..XwXcXfXBXmX>XjXjXjX",
"VXVXVXVXjXjXjXjXVXVXVX} :.:.1.,.i.,.,.j.j.x.x.c.&.U U &.A. X{./.{.E.A.s.C.G.G.v.l.M.w.M.b.c.x.=.>.,.q.=.=.=.K.5XsXxXnXBXsXhXjXjX",
"VXVXVXVXjXjXjXjXVXVXVX..9.j.9.1.f.>.,.:.q.v.v.C.S.( ~ S.~.{.{..X{.{. X{.].I.F.N.N.V.M.N.F.b.c.j.:.+.} +.:.9.F.:XwXsXvXmXnXkXjXjX",
"jXjXjXjXVXVXVXVXjXjXjX-.f.j.j.1.1.:.-.:...@.p.M.C.,.&.D.W.{.{.{. X.X%X|.}.K.V.N.V.V.J.F.J.F.N.l.j.{ { o._ 1.K.}.,XaXhXnXnXsXVXVX",
"jXjXjXjXVXVXVXVXjXjXhX-.j.g.j.j.1.1.9.:.@.} } j.i.<.%.j.H.W.{.{.}.|.-X@XH.C.M.V.L.K.L.P.L.J.l.2...{ } +.} _ v.G..XwXkXmXBXsXVXVX",
"jXjXjXjXVXVXVXVXMXjX+X1.g.c.l.k.c.j.9.:.:.X...=.1.f.i.i.v.G.I.].].].I.G.K.K._.`.U.V.b.l.j.j.j.q.2.+.+.q.2.@.2.l.K.-XsXvXNXsXVXVX",
"jXjXjXjXVXVXVXVXjX^.q.g.c.x.c.c.b.l.j.j.q.9.9.=.+.:.1.j.j.k.v.v.C.C.H.M.F.K.M.2.j.b.b.N.b.J.N.l.1...2.w.q.:.:.l.F.|.yXvXmXnXgXVX",
"VXVXVXVXjXjXjXjXVX-.q.q.j.m.c.z.b.l.b.b.l.b.k.k.9.:.+.@.=.:.2.j.v.v.J.N.v.N.I.J.P.U.U.K.K.L.N.M.2.=.j.z.M.w.w.w.`.#XtXnXnXnX#XjX",
"VXVXVXVXjXjXjXjX4X8.q.l.c.m.m.n.b.v.n.b.m.m.z.z.b.b.z.b.b.N.N.J.D.P.I.].W.!.U.`.oX`.]._.I.K.F.l.q.9.z.z.z.w.K.K._.#XsXnXnXbXXXjX",
"VXVXVXVXjXjXjXjXz.9.w.j.v.D.H.N.F.v.b.b.m.m.m.D.J.F.N.F.K.I.U.Z.p.!.`.[.[.@X|.|.oX|.[.[.`.K.F.l.q.z.m.b.z.M.K._.`.,XsXnXnXbX:XMX",
"VXVXVXVXjXjXjXjX@.j.c.M.H.H.J.J.b.v.m.J.m.b.c.F.F.J.I.K.K.`.`.l.D.!.W.[._.[.[.|.@X@X[.`.[.I.K.b.l.m.V.m.V.K.`.[.[.,XsXcXbXnX5XjX",
"jXjXjXjXVXVXVXE.9.j.x.x.D.H.J.I.F.J.F.F.J.b.N.N.F.J.J.K.G.U.b.I.U.~.[.F.p.[.].oX@X|.[.`.U.L.Z.l.N.J.N.V.K.`.oX@X-X5XiXlXbXbXiXVX",
"jXjXjXjXVXVXVX=.9.g.C.D.Z.Z.F.I.I.I.F.J.P.F.v.b.J.P.F.F.I.I.K.`.I.@X[.`.W.[._.].U.U.W.U.I.N.c.F.L.K.K.N.U.`.@X%X,XwXaXkXcXbXiXBX",
"jXjXjXjXVXVXbX8.k.c.c.C.Z.x.H.I.I.W.P.I.J.D.b.1.=.j.H.F.Z.<.H.|.|.].}.[.[.].I.F.H.P.].U.F.j.1.J.L.I.F.K._.].@X%X,XwXaXkXmXbXfXVX",
"jXjXjXMXVXVX+.w.b.D.W.P.W.!.W.A.C.C.P.I.P.Z.u.,.i.1.v.P.F.H.|.|.@X[.[._.Z.v.U.U.J.U.[.`.K.c.j.L.[.L.J.J.U.}.@X%X3XwXyXkXcXvXfXVX",
"VXVXVXVXjXjXE.1X6X6X6X1X/.}.{.W.I.H.p.p.!.H.Z.j.j./ <.o.J.}.`.]._.M.[.].Z.+X[.{.I.I.!.+XP.H.C.J.`.`.K.L.U.|.@X|.XXwXyXsXvXnXfXzX",
"VXVXVXVXjX9XMXjXVXVXVXVXjXjXjXjXVXVXBXbX0X3XE.Q.&X>X7X0XuXzXhXhXBXVXBXbXgXkXkXkXVXBXBXBXgXkXaXaXlXpXeX5X>X*X:X:X:X5XyXsXxXvXcXhX",
"VXVXVXVXjXjXjXjXVXVXVXVXjXjXjXjXVXVXVXVXjXjXjXjXVXVXVXVXjXjXjXjXVXVXVXVXjXjXMXjXVXVXVXVXjXjXjXjXVXVXVXVXjXjXjXjXVXVXVXVXhXgXjXjX",
"VXVXVXVXjXMXjXjXVXVXVXVXjXjXjXjXVXVXVXVXjXjXjXjXVXVXVXVXjXjXjXjXVXVXVXVXjXjXjXjXVXVXVXVXjXjXjXjXVXVXVXVXjXjXjXjXVXVXVXVXMXjXjXjX",
"jXjXjXjXVXVXVXVXjXjXjXjXVXVXVXVXjXjXjXjXVXVXVXVXjXjXjXjXVXVXVXVXjXjXjXjXVXVXVXVXjXjXjXjXVXVXVXVXjXjXjXjXVXVXVXVXjXjXjXjXVXVXVXVX",
"jXjXjXjXVXVXVXVXjXjXjXjXVXVXVXVXjXjXjXjXVXVXVXVXjXjXjXjXVXVXVXVXjXjXjXjXVXVXVXVXjXjXjXjXVXVXVXVXjXjXjXjXVXVXVXVXjXjXjXjXVXVXVXVX",
"jXjXjXjXVXVXVXVXjXjXjXjXVXVXVXVXjXjXjXjXVXVXVXVXjXjXjXjXVXVXVXVXjXjXjXjXVXVXVXVXjXjXjXjXVXVXVXVXjXjXjXjXVXVXVXVXjXjXjXjXVXVXVXVX",
"jXjXjXjXVXVXVXVXjXjXjXjXVXVXVXVXjXjXjXjXVXVXVXVXjXjXjXjXVXVXVXVXjXjXjXjXVXVXVXVXjXjXjXjXVXVXVXVXjXjXjXjXVXVXVXVXjXjXjXjXVXVXVXVX"
};
