/* XPM */
static char *_2034_bcdbf3e15ceb26461fc77ca84e46d0af9b0f197c6f6e299db731eb0f558c761f[] = {
/* columns rows colors chars-per-pixel */
"64 64 237 2 ",
"   c #0B040E",
".  c #04040A",
"X  c #0B0511",
"o  c #0D0B15",
"O  c #0E0E19",
"+  c #060612",
"@  c #110B16",
"#  c #120D1A",
"$  c #190519",
"%  c #0F121B",
"&  c #071215",
"*  c #101116",
"=  c #11111B",
"-  c #181B1C",
";  c #120926",
":  c #151422",
">  c #151B23",
",  c #181B25",
"<  c #1B1C2A",
"1  c #161727",
"2  c #190A35",
"3  c #171738",
"4  c #031E34",
"5  c #230C26",
"6  c #29093A",
"7  c #221739",
"8  c #391638",
"9  c #2D0D2B",
"0  c #1F2B2C",
"q  c #1A2228",
"w  c #1D2333",
"e  c #192834",
"r  c #22202D",
"t  c #222C36",
"y  c #332E3C",
"u  c #273733",
"i  c #373B3B",
"p  c #52043B",
"a  c #2C443C",
"s  c #1B0B44",
"d  c #190544",
"f  c #191749",
"g  c #0D1D58",
"h  c #181A59",
"j  c #0D0F49",
"k  c #311551",
"l  c #1A294A",
"z  c #17374B",
"x  c #1D2754",
"c  c #1A3855",
"v  c #272749",
"b  c #243445",
"n  c #24394A",
"m  c #212B57",
"M  c #283855",
"N  c #373A57",
"B  c #353450",
"V  c #0B1969",
"C  c #121B6C",
"Z  c #151A66",
"A  c #131771",
"S  c #211A65",
"D  c #192668",
"F  c #152372",
"G  c #192974",
"H  c #132D6C",
"J  c #253767",
"K  c #233A7D",
"L  c #202760",
"P  c #560A46",
"I  c #501655",
"U  c #70105B",
"Y  c #4F305D",
"T  c #66215F",
"R  c #4F146E",
"E  c #7A0766",
"W  c #6D126D",
"Q  c #573768",
"!  c #4F366B",
"~  c #792B76",
"^  c #79357C",
"/  c #6B2D6D",
"(  c #1B4748",
")  c #1A4B52",
"_  c #1A4653",
"`  c #1B5754",
"'  c #1E5348",
"]  c #25414E",
"[  c #2C4049",
"{  c #314946",
"}  c #355246",
"|  c #2C4255",
" . c #2A4859",
".. c #34445A",
"X. c #2B535C",
"o. c #255957",
"O. c #3B5E58",
"+. c #18644C",
"@. c #1A6556",
"#. c #196956",
"$. c #187858",
"%. c #16714C",
"&. c #3D634B",
"*. c #256555",
"=. c #3C6555",
"-. c #20684E",
";. c #17516B",
":. c #2B496A",
">. c #374A63",
",. c #2B5967",
"<. c #335869",
"1. c #364D79",
"2. c #365C72",
"3. c #375975",
"4. c #2B4876",
"5. c #1A6663",
"6. c #2A626A",
"7. c #36646A",
"8. c #326975",
"9. c #336B7A",
"0. c #3C6B7C",
"q. c #386676",
"w. c #357178",
"e. c #2A6E76",
"r. c #524856",
"t. c #46665B",
"y. c #4D785E",
"u. c #464568",
"i. c #50456E",
"p. c #595665",
"a. c #594C7B",
"s. c #495677",
"d. c #4E5672",
"f. c #664279",
"g. c #6B5273",
"h. c #49776B",
"j. c #517F68",
"k. c #487976",
"l. c #587774",
"z. c #426766",
"x. c #6D6D76",
"c. c #85045A",
"v. c #880F69",
"b. c #97056A",
"n. c #94187B",
"m. c #8F0D72",
"M. c #A6016B",
"N. c #A60576",
"B. c #B6017D",
"V. c #B9007F",
"C. c #B70074",
"Z. c #84297B",
"A. c #80376E",
"S. c #A4227D",
"D. c #C2007D",
"F. c #855D79",
"G. c #19855B",
"H. c #1A8758",
"J. c #1A975B",
"K. c #18A35C",
"L. c #0DAB57",
"P. c #21A45B",
"I. c #1B9961",
"U. c #3D8362",
"Y. c #18A763",
"T. c #17B967",
"R. c #52826B",
"E. c #54887B",
"W. c #589777",
"Q. c #488579",
"!. c #65A07D",
"~. c #629975",
"^. c #17C267",
"/. c #16C968",
"(. c #0FD669",
"). c #1FEE71",
"_. c #271C8C",
"`. c #2B1FA9",
"'. c #3B6C82",
"]. c #396683",
"[. c #3D7A8B",
"{. c #387685",
"}. c #595885",
"|. c #555681",
" X c #6D4F8B",
".X c #42758E",
"XX c #417A8F",
"oX c #487887",
"OX c #427D91",
"+X c #566B8D",
"@X c #777F80",
"#X c #6677B0",
"$X c #991582",
"%X c #B60480",
"&X c #BC0181",
"*X c #B30A81",
"=X c #A71782",
"-X c #B10B8D",
";X c #823A86",
":X c #8B2A80",
">X c #C40184",
",X c #CC0081",
"<X c #CD118E",
"1X c #8E7791",
"2X c #8478AA",
"3X c #3B8493",
"4X c #2C8F90",
"5X c #3A95A0",
"6X c #488688",
"7X c #5E9783",
"8X c #458A9E",
"9X c #428398",
"0X c #528B92",
"qX c #758990",
"wX c #59A788",
"eX c #61A495",
"rX c #72B596",
"tX c #4893A6",
"yX c #4D8CA1",
"uX c #73BBA7",
"iX c #36FF80",
"pX c #7BD6AA",
"aX c #7DCFAB",
"sX c #7BCA9C",
"dX c #ADACBA",
"fX c #978695",
"gX c #86D2AB",
"hX c #8CF6B7",
"jX c #90E9B4",
"kX c #BEB6C5",
"lX c #DAB7CC",
"zX c #D9D7D9",
"xX c #DADEE2",
"cX c #FEFEFD",
"vX c #F4F4F6",
"bX c #E3E2E6",
"nX c None",
/* pixels */
"nXnXnXnXnXnXnXnXnXnXnXnXnXnXnXnXnXnXnXnXnXnXnXnXnXnXnXnXnXnXnXnXnXnXnXnXnXnXnXnXnXnXnXnXnXnXnXnXnXnXnXnXnXu.Y nXnXnXnXnXnXnXnXnX",
"nXnXnXnXnXnXnXnXnXnXnXnXnXnXnXnXnXnXnXnXnXnXnXnXnXnXnXnXnXnXnXnXnXnXnXnXnXnXnXnXnXnXnXnXnXnXnXnXnXnXnX>.;Xc.+XnXnXnXnXnXnXnXnXnX",
"nXnXnXnXnXnXnXnXnXnXnXnXnXnXnXnXnXnXnXnXnXnXnXnXnXnXnXnXnXnXnXnXnXnXnXnXnXnXnXnXnXnXnXnXnXnXnXnX..i.n.&XM.0.nXnXnXnXnXnXnXnXnXnX",
"nXnXnXnXnXnXnXnXnXnXnXnXnXnXnXnXnXnXnXnXnXnXnXnXnXnXnXnXnXnXnXnXnXnXnXnXnXnXnXnXnX .,.nXnXnXs.^ B.&XD.>XU 5XnXnXnXnXnXnXnXnXnXnX",
"nXnXnXnXnXnXnXnXnXnXnXnXnXnXnXnXnXnXnXnXnXnXnXnXnXnXnXnXnXnXnXnXnXnXnXnXnXnXnXnXw.f./ 4X<.^ B.V.V.V.B.>XT [.nXnXnXnXnXnXQ u.nXnX",
"nXnXnXnXnXnXnXnXnXnXnXnXnXnXnXnXnXnXnXnXnXnXnXnXnXnXnXnXnXnXnXnXnXnXnXnXnXnXnXe.Q V.E ~ B.D.V.V.B.V.D.E 3XnXnXa.^ :Xn.=X~ 3.nXnX",
"nXnXnXnXnXnXnXnXnXnXnXnXnXnXnXnXnXnXnXnXnXnXnXnXnXnXnXnXnXnXnXnXnXnXnXnXnXnX6.a.C.&X&XV.&XB.V.%XV.V.V.T ^ n.=XD.C.N.Z.Y nXnXnXnX",
"nXnXnXnXnXnXnXnXnXnXnXnXnXnXnXnXnXnXnXnXnXnXnXnXnXnXnXnXnXnXnXnXnXnXnXnXnX9.~ C.%XV.V.B.V.&XV.V.V.%XV.>XV.C.n.}.0.6.nXnXN / a.tX",
"nXnXnXnXnXnXnXnXnXnXnXnXnXnXnXnXnXnXnXnXnXnXnXnXnXnXnXnXnXnXnXnXnXnXnXnXd.N.&X%XV.V.V.V.V.V.V.%XV.V.B.N.E m.g. X^ ~ n.%XB.;XN nX",
"nXnXnXnXnXnXnXnXnXnXnXnXnXnXnXnXnXnXnXnXnXnXnXnXnXnXnXnXnXnXnXnXnXnX7.f.C.>XB.%X&XV.V.V.V.&XV.V.%X&XN.b.C.>X>XD.D.,XC.;X..nXnXnX",
"nXnXnXnXnXnXnXnXnXnXnXnXnXnXnXnXnXnXnXnXnXnXnXnXnXnXnXnXnXnXnXoXg.0X'.M.&XB.V.V.V.V.%XV.V.V.V.V.V.V.%X&XV.B.V.N.n.Z.u.nXnXnXnXnX",
"nXnXnXnXnXnXnXnXnXnXnXnXnXnXnXnXnXnXnXnXnXnXnXnXnXnXnXnXnXnXnXnX+X2XZ.V.V.V.V.V.V.&XV.V.V.%XV.V.%X%XV.V.&XM.b.Q 0.nXnXnXnXnXnXnX",
"nXnXnXnXnXnXnXnXnXnXnXnXnXnXnXnXnXnXnXnXnXnXnXnXnXnXnXnXnXn | n  .,.I c.>XV.V.V.V.V.V.V.V.D.V.D.D.D.&X*X$XZ.i.nXnXnXnXnXnXnXnXnX",
"nXnXnXnXnXnXnXnXnXnXnXnXnXnXnXnXnXnXnXnXnXnXnXnXnX] | n < - o = O # & - P N.B.B.&X%XV.*X=X=X=X$XZ.^ ! | nXnXnXnXnXnXnXnXnXnXnXnX",
"nXnXnXnXnXnXnXnXnXnXnXnXnXnXnXnXnXnXnXnXnXnXnX] n : o X X # - X 1 & y x.a . s.s.N ..u.N nXnXnXnXnXnXnXnXnXnXnXnXnXnXnXnXnXnXnXnX",
"nXnXnXnXnXnXnXnXnXnXnXnXnXnXnXnXnXnXnXnXnXnXnX2.. y r r p.y * y x.Y . & 7 c.Y 3XnXnXnXnXnXnXnXnXnXnXnXnXnXnXnXnXnXnXnXnXnXnXnXnX",
"nXnXnXnXnXnXnXnXnXnXnXnXnXnXnXnXnXnXnXnXnXnXnXw.:.x.p.1Xi x.fXi.Q 1XI W $XE a.nXnXnXnXnXnXnXnXnXnXnXnXnXnXnXnXnXnXnXnXnXnXnXnXnX",
"nXnXnXnXnXnXnXnXnXnXnXnXnXnXnXnXnXnXnXnXnXnXnX6.! T Q g.f./ R d k k W W k c 3XnXnXnXnXnXnXnXnXnXnXnXnXnXnXnXnXnXnXnXnXnXnXnXnXnX",
"nXnXnXnXnXnXnXnXnXnXnXnXnXnXnXnXnXnXnXnXnX6.b > @ # 2 6 6 ; 6 P U U J s.x M <.m n n n o.nXnXnXnXnXnXnXnXnXnXnXnXnXnXnXnXnXnXnXnX",
"nXnXnXnXnXnXnXnXnXnXnXnXnXnXnXnXnXnXnXX.w.l.: = - 9 7 4 c J S ~ <XD.A.B Z h 7 ` $.G.I.I.o.].nXnXnXnXnXnXnXnXnXnXnXnXnXnXnXnXnXnX",
"nXnXnXnXnXnXnXnXnXnXnXnXnXnXnXnXnX .eXwXW.pXz.nXnX8 N./ d.x.x.l.S.S.g.u.5.5.$.K.) n f d d 2 yXnXnXnXnXnXnXnXnXnXnXnXnXnXnXnXnXnX",
"nXnXnXnXnXnXnXnXnXnXnXnXnXnXnXnX3X7X'.0.3.3.pX} nXP >Xb.v fXx.g.U x.qXJ.K.' l s s s l @.( :. .nXnXnXnXnXnXnXnXnXnXnXnXnXnXnXnXnX",
"nXnXnXnXnXnXnXnXnXnXnXnXnXnXnXnX9.k.3XZ H :.eX} p C.I x F Z k -.( %.H.H.*.c d l f @.K.^.-.8XnXnXnXnXnXnXnXnXnXnXnXnXnXnXnXnXnXnX",
"nXnXnXnXnXnXnXnXnXnXnXnXnXnXnXnXnXnXeX0.q.6XwXp.~ lXkXa.l ] $.$.( T.Y.^.T.d ` ` #./.$.@.M [.nXnXnXnXnXnXnXnXnXnXnXnXnXnXnXnXnXnX",
"nXnXnXnXnXnXnXnXnXnXnXnXnXnXnXnXnXo.,.` *.D ;.K x }.g.Y.J.Y.J.' K.J.) _ @.@.Y.#.H.Y.T._ .XnXnXnXnXnXnXnXnXnXnXnXnXnXnXnXnXnXnXnX",
"nXnXnXnXnXnXnXnXnXnXnXnXnXnXnXM :._ l x l 3 I h V V V H m K.$.+.T.G.T.$.) ^.$.G././.e [.nXnXnXnXnXnXnXnXnXnXnXnXnXnXnXnXnXnXnXnX",
"nXnXnXnXnXnXnXnXnXnXnXnXnXw.6.c z _ ) G.L.U -XR I D F H ` H.f #.^.` #.l _ Y.T.$.@.:.<.nXnXnXnXnXnXnXnXnXnXnXnXnXnXnXnXnXnXnXnXnX",
"nXnXnXnXnXnXnXnXnXnXnXnXXX] ( c c l l I.( R Z.R W 3 H.o.f d l Y.).l _ @.(.T.` <.M nXnXnXnXnXnXnXnXnXnXnXnXnXnXnXnXnXnXnXnXnXnXnX",
"nXnXnXnXnXnXnXnXnXnXnXnXtXf s s s s #.%.f H V D Z m P.3 _ L.(.%.f f ) z z 2 3.nXnXnXnXnXnXnXnXnXnXnXnXnXnXnXnXnXnXnXnXnXnXnXnXnX",
"nXnXnXnXnXnXnXnXnXnXnXnXnX . .J v B +.j j f k S x s.qXW.).iXh.N ..k. .N m 1.nXnXnXnXnXnXnXnXnXnXnXnXnXnXnXnXnXnXnXnXnXnXnXnXnXnX",
"nXnXnXnXnXnXnXnXnXnXnXnXnXnXnXyXzXvXdXdXdX|.$Xm.D J 3.oX3.+X#XuXhXhXhXrXR.Q.O.nXnXnXnXnXnXnXnXnXnXnXnXnXnXnXnXnXnXnXnXnXnXnXnXnX",
"nXnXnXnXnXnXnXnXnXnXnXnXnXnX9Xr.dXxXcXcXvXxXm f f f j j s _.`._. .s.gXwX<.h.q.'.nXnXnXnXnXnXnXnXnXnXnXnXnXnXnXnXnXnXnXnXnXnXnXnX",
"nXnXnXnXnXnXnXnXnXnXnXnXnXnX8X1 . = p.bXvXdXB 3 3 v v M ..[ [ | M M 9XnXnXnXnXnXnXnXnXnXnXnXnXnXnXnXnXnXnXnXnXnXnXnXnXnXnXnXnXnX",
"nXnXnXnXnXnXnXnXnXnXnXnXnXnX<.X - = + < y + X = * > q 0 t t t t t - | nXnXnXnXnXnXnXnXnXnXnXnXnXnXnXnXnXnXnXnXnXnXnXnXnXnXnXnXnX",
"nXnXnXnXnXnXnXnXnXnXnXnXnX{.b X O O = O o * = = = @ o +   - O X @ : ; 3.8.nXnXnXnXnXnXnXnXnXnXnXnXnXnXnXnXnXnXnXnXnXnXnXnXnXnXnX",
"nXnXnXnXnXnXnXnXnXnXnXnXnXXX  : # % O % - % % # = * - > : M rXD h G F C :.8.nXnXnXnXnXnXnXnXnXnXnXnXnXnXnXnXnXnXnXnXnXnXnXnXnXnX",
"nXnXnXnXnXnXnXnXnXnXnXnXnX.X@ = % = # % % # % % * 3 D F F A '.aXK C F F C J 0.nXnXnXnXnXnXnXnXnXnXnXnXnXnXnXnXnXnXnXnXnXnXnXnXnX",
"nXnXnXnXnXnXnXnXnXnXnXnXnXOX  # = O % = % # = % @ M K Z F D A .XuXG A K F F L OXnXnXnXnXnXnXnXnXnXnXnXnXnXnXnXnXnXnXnXnXnXnXnXnX",
"nXnXnXnXnXnXnXnXnXnXnXnX<.X.o = % # # % % % # o < [.X.3.Z K K A 9XgX1.M 3 3 3 b [.nXnXnXnXnXnXnXnXnXnXnXnXnXnXnXnXnXnXnXnXnXnXnX",
"nXnXnXnXnXnXnXnXnXnXnXnXtX: O % % = = O # % =   <.nXnXnX'.J D M 3 t.hX* o * o   ..w.nXnXnXnXnXnXnXnXnXnXnXnXnXnXnXnXnXnXnXnXnXnX",
"nXnXnXnXnXnXnXnXnXnXnXnX8X< o = # % % = # =   >.8.nXnXnXnXq.w   = + } h.O o - :   2.nXnXnXnXnXnXnXnXnXnXnXnXnXnXnXnXnXnXnXnXnXnX",
"nXnXnXnXnXnXnXnXnXnXnXnX8X< O = O = = = % o < 3XnXnXnXnXnXnX,.| X - X a R.> . + > # OXnXnXnXnXnXnXnXnXnXnXnXnXnXnXnXnXnXnXnXnXnX",
"nXnXnXnXnXnXnXnXnXnXnXnX8X< o = = = = = # = XXnXnXnXnXnXnXnXnX8.<.  o . > { t.a r - t 3XnXnXnXnXnXnXnXnXnXnXnXnXnXnXnXnXnXnXnXnX",
"nXnXnXnXnXnXnXnXnXnXnXnX8X< o % = O = o @ '.nXnXnXnXnXnXnXnXnXnXnX<.n !.sXjXsX0 X = X 3.nXnXnXnXnXnXnXnXnXnXnXnXnXnXnXnXnXnXnXnX",
"nXnXnXnXnXnXnXnXnXnXnXnX8X< o = = =   w [.nXnXnXnXnXnXnXnXnXnXnXnXnXoXrX!.a o o - % O : XXnXnXnXnXnXnXnXnXnXnXnXnXnXnXnXnXnXnXnX",
"nXnXnXnXnXnXnXnXnXnXnXnX8X< O # = = e <.nXnXnXnXnXnXnXnXnXnXnXnXnXnXnX].1 + X # % O = o w OXnXnXnXnXnXnXnXnXnXnXnXnXnXnXnXnXnXnX",
"nXnXnXnXnXnXnXnXnXnXnXnX>.X = = = @ 2.nXnXnXnXnXnXnXnXnXnXnXnXnXnXnXnXnXnX,.b   O = % = X w ,.nXnXnXnXnXnXnXnXnXnXnXnXnXnXnXnXnX",
"nXnXnXnXnXnXnXnXnXnXnX{. .  = = = o w [.nXnXnXnXnXnXnXnXnXnXnXnXnXnXnXnXnXnX<.,.# X O = * o # n <.nXnXnXnXnXnXnXnXnXnXnXnXnXnXnX",
"nXnXnXnXnXnXnXnXnXnXnXXX1 # = = = - . .XnXnXnXnXnXnXnXnXnXnXnXnXnXnXnXnXnXnXnXnX| ,.: o = = =   w <.nXnXnXnXnXnXnXnXnXnXnXnXnXnX",
"nXnXnXnXnXnXnXnXnXnXnX<.  = * = = o 1 OXnXnXnXnXnXnXnXnXnXnXnXnXnXnXnXnXnXnXnXnXnXnX0.< o = % = o   q.nXnXnXnXnXnXnXnXnXnXnXnXnX",
"nXnXnXnXnXnXnXnXnXnXtX# % O # = o # XXnXnXnXnXnXnXnXnXnXnXnXnXnXnXnXnXnXnXnXnXnXnXnXnXOX< o = = = O : tXnXnXnXnXnXnXnXnXnXnXnXnX",
"nXnXnXnXnXnXnXnXnXnX8X1 O O - X w q.nXnXnXnXnXnXnXnXnXnXnXnXnXnXnXnXnXnXnXnXnXnXnXnXnXnXXX# @ = = @ 1 XXnXnXnXnXnXnXnXnXnXnXnXnX",
"nXnXnXnXnXnXnXnXnX8.>.X = = o w {.nXnXnXnXnXnXnXnXnXnXnXnXnXnXnXnXnXnXnXnXnXnXnXnXnXnXnXnX0.@ @ = =   ..{.nXnXnXnXnXnXnXnXnXnXnX",
"nXnXnXnXnXnXnXnXnX{.| X = o t [.nXnXnXnXnXnXnXnXnXnXnXnXnXnXnXnXnXnXnXnXnXnXnXnXnXnXnXnXnXnX.X  % # = = [.nXnXnXnXnXnXnXnXnXnXnX",
"nXnXnXnXnXnXnXnXnX{. .X O : 8XnXnXnXnXnXnXnXnXnXnXnXnXnXnXnXnXnXnXnXnXnXnXnXnXnXnXnXnXnXnXnXnXOX: = =   .XnXnXnXnXnXnXnXnXnXnXnX",
"nXnXnXnXnXnXnXnXnX8.1 o $ q.nXnXnXnXnXnXnXnXnXnXnXnXnXnXnXnXnXnXnXnXnXnXnXnXnXnXnXnXnXnXnXnXnXnX2.X % X .XnXnXnXnXnXnXnXnXnXnXnX",
"nXnXnXnXnXnXnXnX8X; - p i.9.nXnXnXnXnXnXnXnXnXnXnXnXnXnXnXnXnXnXnXnXnXnXnXnXnXnXnXnXnXnXnXnXnXnXXX1 5 $ e 9XnXnXnXnXnXnXnXnXnXnX",
"nXnXnXnXnXnX0XaXeXt.8 c.d.nXnXnXnXnXnXnXnXnXnXnXnXnXnXnXnXnXnXnXnXnXnXnXnXnXnXnXnXnXnXnXnXnXnXnXnXs.p 8 9 9XnXnXnXnXnXnXnXnXnXnX",
"nXnXnXnXnX[.{ ~.a I M.C.|.nXnXnXnXnXnXnXnXnXnXnXnXnXnXnXnXnXnXnXnXnXnXnXnXnXnXnXnXnXnXnXnXnXq.s.~ M.M.b.v.8 0.nXnXnXnXnXnXnXnXnX",
"nXnXnXnX9X< . - = 9 ~.8 8.nXnXnXnXnXnXnXnXnXnXnXnXnXnXnXnXnXnXnXnXnXnXnXnXnXnXnXnXnXnXnXnXnXnXnX|.T P 9 $ u y. .nXnXnXnXnXnXnXnX",
"nXnXnX[.<.* X 0 & . &.&.M {.nXnXnXnXnXnXnXnXnXnXnXnXnXnXnXnXnXnXnXnXnXnXnXnXnXnXnXnXnXnXnXnXnXnXnX) X } &.0 W.a 9.nXnXnXnXnXnXnX",
"nXn n O.u a u * a R.t.} 0.nXnXnXnXnXnXnXnXnXnXnXnXnXnXnXnXnXnXnXnXnXnXnXnXnXnXnXnXnXnXnXnXnXnXq.E.R.W.W.> t.a a 0X8.nXnXnXnXnXnX",
"6Xh.a { =.z.h.k.7.7.<.nXnXnXnXnXnXnXnXnXnXnXnXnXnXnXnXnXnXnXnXnXnXnXnXnXnXnXnXnXnXnXnXnXnX6XE.E.rXgXgXR.} W.j.oXnXnXnXnXnXnXnXnX",
"nXnXnXnXnXnXnXnXnXnXnXnXnXnXnXnXnXnXnXnXnXnXnXnXnXnXnXnXnXnXnXnXnXnXnXnXnXnXnXnXnXnXnXnXnXnXnXnXX.7.<.z.7.nXnXnXnXnXnXnXnXnXnXnX"
};
